<svg width="20" height="17" viewBox="0 0 20 17" fill="none" xmlns="http://www.w3.org/2000/svg">
<path d="M2.215 5.49001C2.215 5.3574 2.16232 5.23022 2.06855 5.13646C1.97479 5.04269 1.84761 4.99001 1.715 4.99001H0.5C0.367392 4.99001 0.240215 5.04269 0.146447 5.13646C0.0526784 5.23022 0 5.3574 0 5.49001C0 5.62262 0.0526784 5.74979 0.146447 5.84356C0.240215 5.93733 0.367392 5.99001 0.5 5.99001H1.715C1.84761 5.99001 1.97479 5.93733 2.06855 5.84356C2.16232 5.74979 2.215 5.62262 2.215 5.49001ZM16.135 8.05501H15.525C15.4697 8.05568 15.4147 8.04527 15.3635 8.02441C15.3122 8.00354 15.2657 7.97262 15.2265 7.93349C15.1874 7.89435 15.1565 7.84779 15.1356 7.79653C15.1147 7.74527 15.1043 7.69035 15.105 7.63501V7.02501C15.105 6.8924 15.0523 6.76522 14.9586 6.67146C14.8648 6.57769 14.7376 6.52501 14.605 6.52501C14.4724 6.52501 14.3452 6.57769 14.2514 6.67146C14.1577 6.76522 14.105 6.8924 14.105 7.02501V7.63501C14.105 8.01162 14.2546 8.3728 14.5209 8.6391C14.7872 8.9054 15.1484 9.05501 15.525 9.05501H16.135C16.2676 9.05501 16.3948 9.00233 16.4886 8.90856C16.5823 8.81479 16.635 8.68762 16.635 8.55501C16.635 8.4224 16.5823 8.29522 16.4886 8.20146C16.3948 8.10769 16.2676 8.05501 16.135 8.05501ZM19.435 8.32001L15.96 4.35001C15.7989 4.16275 15.5995 4.01228 15.3752 3.90876C15.1509 3.80525 14.907 3.75111 14.66 3.75001H12.955V0.88501C12.955 0.752402 12.9023 0.625225 12.8086 0.531456C12.7148 0.437688 12.5876 0.38501 12.455 0.38501H2C1.86739 0.38501 1.74021 0.437688 1.64645 0.531456C1.55268 0.625225 1.5 0.752402 1.5 0.88501C1.5 1.01762 1.55268 1.14479 1.64645 1.23856C1.74021 1.33233 1.86739 1.38501 2 1.38501H11.955V13.275H7.85C7.78434 13.275 7.71932 13.2879 7.65866 13.3131C7.598 13.3382 7.54288 13.375 7.49645 13.4215C7.45002 13.4679 7.41319 13.523 7.38806 13.5837C7.36293 13.6443 7.35 13.7093 7.35 13.775C7.35 13.8407 7.36293 13.9057 7.38806 13.9664C7.41319 14.027 7.45002 14.0821 7.49645 14.1286C7.54288 14.175 7.598 14.2118 7.65866 14.2369C7.71932 14.2621 7.78434 14.275 7.85 14.275H13.85C13.9649 14.7955 14.254 15.2611 14.6695 15.5949C15.085 15.9287 15.602 16.1107 16.135 16.1107C16.668 16.1107 17.185 15.9287 17.6005 15.5949C18.016 15.2611 18.3051 14.7955 18.42 14.275H18.59C18.9649 14.2724 19.3235 14.1216 19.5876 13.8556C19.8518 13.5896 20 13.2299 20 12.855V9.85501C20.0016 9.29219 19.8011 8.74751 19.435 8.32001ZM16.135 15.115C15.8697 15.1111 15.6114 15.0287 15.3928 14.8783C15.1741 14.7279 15.0049 14.5162 14.9063 14.2698C14.8077 14.0235 14.7842 13.7534 14.8387 13.4937C14.8933 13.234 15.0234 12.9963 15.2128 12.8104C15.4022 12.6244 15.6423 12.4987 15.903 12.449C16.1636 12.3993 16.4332 12.4277 16.6777 12.5309C16.9222 12.634 17.1307 12.8072 17.2771 13.0285C17.4234 13.2499 17.501 13.5096 17.5 13.775C17.5 13.9531 17.4646 14.1294 17.3957 14.2936C17.3268 14.4579 17.2258 14.6067 17.0987 14.7315C16.9716 14.8562 16.8209 14.9544 16.6555 15.0203C16.49 15.0861 16.3131 15.1183 16.135 15.115ZM19 12.855C19 12.9102 18.9891 12.9648 18.968 13.0157C18.9469 13.0667 18.916 13.113 18.877 13.152C18.838 13.191 18.7917 13.2219 18.7407 13.243C18.6898 13.2641 18.6352 13.275 18.58 13.275H18.41C18.2975 12.7533 18.0095 12.2858 17.5942 11.9505C17.1789 11.6152 16.6613 11.4324 16.1275 11.4324C15.5937 11.4324 15.0761 11.6152 14.6608 11.9505C14.2455 12.2858 13.9575 12.7533 13.845 13.275H12.945V4.75001H14.65C14.7536 4.7494 14.856 4.77147 14.9502 4.81466C15.0443 4.85784 15.1279 4.92111 15.195 5.00001L18.695 8.97001C18.9021 9.21938 19.0106 9.53602 19 9.86001V12.855ZM4.17 11.43C3.63573 11.4305 3.1177 11.6138 2.70201 11.9494C2.28633 12.285 1.99802 12.7528 1.885 13.275H1.1C1.03434 13.275 0.969321 13.2879 0.908658 13.3131C0.847995 13.3382 0.792876 13.375 0.746447 13.4215C0.700017 13.4679 0.663188 13.523 0.63806 13.5837C0.612933 13.6443 0.6 13.7093 0.6 13.775C0.6 13.8407 0.612933 13.9057 0.63806 13.9664C0.663188 14.027 0.700017 14.0821 0.746447 14.1286C0.792876 14.175 0.847995 14.2118 0.908658 14.2369C0.969321 14.2621 1.03434 14.275 1.1 14.275H1.885C1.98021 14.7058 2.19524 15.1008 2.50529 15.4146C2.81534 15.7285 3.20779 15.9482 3.63737 16.0486C4.06694 16.149 4.51614 16.1259 4.93316 15.982C5.35018 15.8381 5.71803 15.5793 5.99427 15.2353C6.27052 14.8914 6.44391 14.4763 6.49445 14.0381C6.54499 13.5998 6.47062 13.1562 6.27991 12.7584C6.08921 12.3606 5.78994 12.0249 5.41662 11.7898C5.0433 11.5548 4.61115 11.43 4.17 11.43ZM4.17 15.115C3.90315 15.118 3.64145 15.0415 3.4182 14.8953C3.19494 14.7491 3.02022 14.5398 2.91626 14.294C2.8123 14.0483 2.78381 13.7771 2.83441 13.5151C2.885 13.2531 3.0124 13.012 3.2004 12.8226C3.38839 12.6332 3.62848 12.504 3.89011 12.4514C4.15175 12.3989 4.42311 12.4253 4.66966 12.5275C4.91622 12.6296 5.12682 12.8027 5.27468 13.0249C5.42254 13.247 5.50098 13.5081 5.5 13.775C5.50001 14.1287 5.36021 14.468 5.11107 14.719C4.86193 14.97 4.52365 15.1124 4.17 15.115ZM11.42 7.02501C11.421 6.93919 11.3999 6.85456 11.3588 6.77925C11.3176 6.70394 11.2578 6.64049 11.185 6.59501L7.185 4.14001C7.10899 4.09613 7.02277 4.07302 6.935 4.07302C6.84723 4.07302 6.76101 4.09613 6.685 4.14001C6.60609 4.18318 6.54029 4.24684 6.49453 4.32428C6.44878 4.40172 6.42475 4.49006 6.425 4.58001V5.00001H3.555C3.42239 5.00001 3.29521 5.05269 3.20145 5.14646C3.10768 5.24022 3.055 5.3674 3.055 5.50001C3.055 5.63262 3.10768 5.7598 3.20145 5.85356C3.29521 5.94733 3.42239 6.00001 3.555 6.00001H6.93C7.06261 6.00001 7.18979 5.94733 7.28355 5.85356C7.37732 5.7598 7.43 5.63262 7.43 5.50001V5.47501L9.965 7.03501L7.43 8.59501V8.56501C7.43 8.4324 7.37732 8.30522 7.28355 8.21146C7.18979 8.11769 7.06261 8.06501 6.93 8.06501H2.93C2.79739 8.06501 2.67021 8.11769 2.57645 8.21146C2.48268 8.30522 2.43 8.4324 2.43 8.56501C2.43 8.69762 2.48268 8.82479 2.57645 8.91856C2.67021 9.01233 2.79739 9.06501 2.93 9.06501H6.43V9.49001C6.43065 9.57911 6.45509 9.66641 6.50081 9.74289C6.54652 9.81937 6.61184 9.88225 6.69 9.92501C6.76325 9.96654 6.8458 9.9889 6.93 9.99001C7.02361 9.99031 7.11543 9.96432 7.195 9.91501L11.195 7.46001C11.2667 7.41289 11.325 7.34812 11.3644 7.27194C11.4038 7.19576 11.423 7.11073 11.42 7.02501Z" fill="#7F8080"/>
</svg>
